# xmcd
#
# Track frame offsets: 
#        150
#        8018
#        15588
#        26010
#        49809
#        59474
#        64945
#        76681
#        89639
#        107024
#        122086
#        132317
#        139740
#        149596
#        160356
#        176558
#        195797
#        206361
#        238110
#        247469
#        259379
#        274011
#        310036
#        321997
#        333827
#        347380
#
# Disc length: 4754 seconds
#
# Revision: 0
# Processed by: cddbd v1.5.2PL0 Copyright (c) Steve Scherf et al.
# Submitted via: ExactAudioCopyFreeDBPlugin 1.0
#
DISCID=7a12901a
DTITLE=Various Artist - Really the Blues - Disc 35
DYEAR=1900
DGENRE=50s
TTITLE0=Wes Montgomery - Hymn for Carl (excerpt)
TTITLE1=Buck Owens - That Ain't Right
TTITLE2=Paul Robeson - No More Auction Block
TTITLE3=Cannonball Adderley - One for Daddy O (excerpt)
TTITLE4=Kenneth Rexroth - State and 32nd
TTITLE5=Ringling Brothers and Barnum and Bailey Circus Band - Trombone
TTITLE5=Blues
TTITLE6=Patsy Cline - Let the Teardrops Fall
TTITLE7=Della Reese - When Your Lover Has Gone
TTITLE8=Albert King - Ooh Ee Baby
TTITLE9=Henry Mancini - Blues for Mother's
TTITLE10=Dorothy Dandridge - I Loves You Porgy
TTITLE11=Alabama Sacred Heart Singers - Antioch
TTITLE12=Isley Brothers - Respectable
TTITLE13=Kenyon Hopkins - Get Crazy
TTITLE14=I.D. Back and Congregation - Sermon - Hymn
TTITLE15=Horace Silver - Sister Sadie (excerpt)
TTITLE16=Congregation of Mt. Olive Reg. Baptist Church - Poor Pilgrim 
TTITLE16=of Sorrow
TTITLE17=Eddie Costa - House of Blue Lights
TTITLE18=Dale Hawkins - Liza Jane
TTITLE19=Fabulous Flee-Rakkers - Taboo
TTITLE20=Mac Rebennack - Storm Warning
TTITLE21=Charles Mingus - Moanin'
TTITLE22=Staple Singers - Good News
TTITLE23=Frankie Miller - Blackland Farmer
TTITLE24=Dave Van Ronk - KC Moan
TTITLE25=Shenandoah Quartet - Gone Home
EXTD=
EXTT0=
EXTT1=
EXTT2=
EXTT3=
EXTT4=
EXTT5=
EXTT6=
EXTT7=
EXTT8=
EXTT9=
EXTT10=
EXTT11=
EXTT12=
EXTT13=
EXTT14=
EXTT15=
EXTT16=
EXTT17=
EXTT18=
EXTT19=
EXTT20=
EXTT21=
EXTT22=
EXTT23=
EXTT24=
EXTT25=
PLAYORDER=
